<?xml version="1.0" encoding="UTF-8" standalone="no"?>
<!-- Created with Inkscape (http://www.inkscape.org/) -->

<svg
   width="35.751999mm"
   height="70.707001mm"
   viewBox="0 0 35.751999 70.707"
   version="1.1"
   id="svg1"
   inkscape:version="1.3 (0e150ed6c4, 2023-07-21)"
   sodipodi:docname="p_rekaw.svg"
   xmlns:inkscape="http://www.inkscape.org/namespaces/inkscape"
   xmlns:sodipodi="http://sodipodi.sourceforge.net/DTD/sodipodi-0.dtd"
   xmlns:xlink="http://www.w3.org/1999/xlink"
   xmlns="http://www.w3.org/2000/svg"
   xmlns:svg="http://www.w3.org/2000/svg"
   xmlns:rdf="http://www.w3.org/1999/02/22-rdf-syntax-ns#"
   xmlns:cc="http://creativecommons.org/ns#"
   xmlns:dc="http://purl.org/dc/elements/1.1/">
  <sodipodi:namedview
     id="namedview1"
     pagecolor="#505050"
     bordercolor="#eeeeee"
     borderopacity="1"
     inkscape:showpageshadow="0"
     inkscape:pageopacity="0"
     inkscape:pagecheckerboard="0"
     inkscape:deskcolor="#505050"
     inkscape:document-units="mm"
     inkscape:zoom="4"
     inkscape:cx="97.375"
     inkscape:cy="84.375"
     inkscape:window-width="3440"
     inkscape:window-height="1377"
     inkscape:window-x="1912"
     inkscape:window-y="-8"
     inkscape:window-maximized="1"
     inkscape:current-layer="layer1"
     inkscape:lockguides="false" />
  <defs
     id="defs1">
    <inkscape:path-effect
       effect="mirror_symmetry"
       start_point="105,71.702083"
       end_point="105,105.85045"
       center_point="105,88.776266"
       id="path-effect2"
       is_visible="true"
       lpeversion="1.2"
       lpesatellites=""
       mode="free"
       discard_orig_path="false"
       fuse_paths="false"
       oposite_fuse="false"
       split_items="false"
       split_open="false"
       link_styles="false" />
    <inkscape:path-effect
       effect="mirror_symmetry"
       start_point="98.566595,71.702083"
       end_point="98.566595,105.85045"
       center_point="98.566595,88.776266"
       id="path-effect1"
       is_visible="true"
       lpeversion="1.2"
       lpesatellites=""
       mode="free"
       discard_orig_path="false"
       fuse_paths="false"
       oposite_fuse="false"
       split_items="false"
       split_open="false"
       link_styles="false" />
    <inkscape:path-effect
       effect="mirror_symmetry"
       start_point="98.566595,71.702083"
       end_point="98.566595,105.85045"
       center_point="98.566595,88.776266"
       id="path-effect1-1"
       is_visible="true"
       lpeversion="1.2"
       lpesatellites=""
       mode="free"
       discard_orig_path="false"
       fuse_paths="false"
       oposite_fuse="false"
       split_items="false"
       split_open="false"
       link_styles="false" />
    <inkscape:path-effect
       effect="mirror_symmetry"
       start_point="26.702246,211.93125"
       end_point="26.702246,246.14243"
       center_point="26.702246,229.03684"
       id="path-effect8"
       is_visible="true"
       lpeversion="1.2"
       lpesatellites=""
       mode="free"
       discard_orig_path="false"
       fuse_paths="false"
       oposite_fuse="false"
       split_items="false"
       split_open="false"
       link_styles="false" />
    <linearGradient
       inkscape:collect="always"
       xlink:href="#linearGradient71"
       id="linearGradient70"
       x1="60.486919"
       y1="166.54201"
       x2="60.486919"
       y2="169.38318"
       gradientUnits="userSpaceOnUse"
       gradientTransform="translate(-41.87548,49.12414)" />
    <linearGradient
       id="linearGradient71"
       inkscape:collect="always">
      <stop
         style="stop-color:#008000;stop-opacity:1;"
         offset="0"
         id="stop71" />
      <stop
         style="stop-color:#008000;stop-opacity:0;"
         offset="1"
         id="stop72" />
    </linearGradient>
    <inkscape:path-effect
       effect="mirror_symmetry"
       start_point="92.440541,70.19058"
       end_point="92.440541,135.99164"
       center_point="92.440541,103.09111"
       id="path-effect4"
       is_visible="false"
       lpeversion="1.2"
       lpesatellites=""
       mode="free"
       discard_orig_path="false"
       fuse_paths="false"
       oposite_fuse="false"
       split_items="false"
       split_open="false"
       link_styles="false" />
    <inkscape:path-effect
       effect="mirror_symmetry"
       start_point="92.440541,70.19058"
       end_point="92.440541,135.99164"
       center_point="92.440541,103.09111"
       id="path-effect4-4"
       is_visible="false"
       lpeversion="1.2"
       lpesatellites=""
       mode="free"
       discard_orig_path="false"
       fuse_paths="false"
       oposite_fuse="false"
       split_items="false"
       split_open="false"
       link_styles="false" />
  </defs>
  <g
     inkscape:label="Warstwa 1"
     inkscape:groupmode="layer"
     id="layer1"
     transform="translate(-76.491218,-70.19058)">
    <path
       style="display:inline;fill:none;stroke:#024f12;stroke-width:0.75;stroke-dasharray:2.25, 0.75;stroke-dashoffset:2.1;stroke-opacity:1"
       d="M 111.86822,76.001103 V 171.44866"
       id="path1"
       sodipodi:nodetypes="cc" />
    <path
       id="path5"
       style="color:#000000;fill:#024f12;stroke-dashoffset:10.7717;-inkscape-stroke:none"
       d="m 104.24079,75.824219 -0.38923,0.632812 7.81641,4.958985 0.40039,-0.632813 z M 94.367129,70.19058 v 0.749825 c 4.812594,0 9.171291,0.345707 12.304671,0.898653 1.56671,0.27648 2.82918,0.606428 3.66955,0.957048 0.42019,0.17531 0.73305,0.357531 0.91829,0.517281 0.18525,0.15975 0.22634,0.268414 0.22634,0.337964 v 1.103808 0.888318 5.23844 l -1.86707,0.721403 -3.30264,1.276408 -0.99425,0.383956 -0.88884,-6.117973 -0.19275,-1.32395 c -2.80035,0.340673 -6.20246,0.542602 -9.873301,0.542602 v 0.749825 c 3.399427,0 6.545711,-0.17778 9.241301,-0.473872 l 1.11001,7.652762 1.86448,-0.720369 0.003,0.0078 0.7736,-0.298689 4.12636,-1.593702 0.74983,-0.289388 V 73.6514 c 0,-0.35666 -0.20549,-0.662188 -0.48628,-0.904338 -0.2808,-0.24216 -0.65379,-0.448328 -1.11879,-0.642338 -0.92998,-0.38801 -2.22937,-0.721923 -3.82819,-1.004073 -3.19772,-0.564306 -7.587067,-0.910022 -12.435421,-0.910022 z m 0,-2e-6 v 0.74983 c -4.81261,0 -9.17126,0.3457 -12.30468,0.89865 -1.56671,0.27648 -2.82917,0.60643 -3.66954,0.95705 -0.42019,0.17531 -0.73305,0.35753 -0.91829,0.51728 -0.18525,0.15975 -0.22635,0.26841 -0.22635,0.33796 0,0.0696 0.0411,0.18028 0.22635,0.34004 0.18524,0.15975 0.4981,0.34041 0.91829,0.51573 0.84037,0.35062 2.10283,0.68263 3.66954,0.95911 3.13342,0.55296 7.49207,0.89814 12.30468,0.89814 v 0.74982 c -4.84837,0 -9.2377,-0.34572 -12.43542,-0.91002 -1.59886,-0.28215 -2.89821,-0.61606 -3.82819,-1.00407 -0.33298,-0.13893 -0.61659,-0.28472 -0.85525,-0.44494 v 69.714312 h -0.74982 V 73.651348 c 0,-0.35666 0.20548,-0.66218 0.48627,-0.90433 0.2808,-0.24216 0.6538,-0.44833 1.1188,-0.64234 0.92998,-0.38801 2.22933,-0.72192 3.82819,-1.00407 3.19772,-0.56431 7.58705,-0.91003 12.43542,-0.91003 z" />
  </g>
  <metadata
     id="metadata4">
    <rdf:RDF>
      <cc:Work
         rdf:about="">
        <dc:creator>
          <cc:Agent>
            <dc:title>Dariusz Rzeźnik</dc:title>
          </cc:Agent>
        </dc:creator>
      </cc:Work>
    </rdf:RDF>
  </metadata>
</svg>
