<?xml version="1.0" encoding="UTF-8" standalone="no"?>
<!-- Created with Inkscape (http://www.inkscape.org/) -->

<svg
   width="35.751999mm"
   height="70.707001mm"
   viewBox="0 0 35.751999 70.707"
   version="1.1"
   id="svg1"
   inkscape:version="1.3 (0e150ed6c4, 2023-07-21)"
   sodipodi:docname="p_rekaw_z.svg"
   xmlns:inkscape="http://www.inkscape.org/namespaces/inkscape"
   xmlns:sodipodi="http://sodipodi.sourceforge.net/DTD/sodipodi-0.dtd"
   xmlns:xlink="http://www.w3.org/1999/xlink"
   xmlns="http://www.w3.org/2000/svg"
   xmlns:svg="http://www.w3.org/2000/svg"
   xmlns:rdf="http://www.w3.org/1999/02/22-rdf-syntax-ns#"
   xmlns:cc="http://creativecommons.org/ns#"
   xmlns:dc="http://purl.org/dc/elements/1.1/">
  <sodipodi:namedview
     id="namedview1"
     pagecolor="#505050"
     bordercolor="#eeeeee"
     borderopacity="1"
     inkscape:showpageshadow="0"
     inkscape:pageopacity="0"
     inkscape:pagecheckerboard="0"
     inkscape:deskcolor="#505050"
     inkscape:document-units="mm"
     inkscape:zoom="4"
     inkscape:cx="71.375"
     inkscape:cy="88.125"
     inkscape:window-width="3440"
     inkscape:window-height="1377"
     inkscape:window-x="1912"
     inkscape:window-y="-8"
     inkscape:window-maximized="1"
     inkscape:current-layer="layer1"
     inkscape:lockguides="false" />
  <defs
     id="defs1">
    <inkscape:path-effect
       effect="mirror_symmetry"
       start_point="105,71.702083"
       end_point="105,105.85045"
       center_point="105,88.776266"
       id="path-effect2"
       is_visible="true"
       lpeversion="1.2"
       lpesatellites=""
       mode="free"
       discard_orig_path="false"
       fuse_paths="false"
       oposite_fuse="false"
       split_items="false"
       split_open="false"
       link_styles="false" />
    <inkscape:path-effect
       effect="mirror_symmetry"
       start_point="98.566595,71.702083"
       end_point="98.566595,105.85045"
       center_point="98.566595,88.776266"
       id="path-effect1"
       is_visible="true"
       lpeversion="1.2"
       lpesatellites=""
       mode="free"
       discard_orig_path="false"
       fuse_paths="false"
       oposite_fuse="false"
       split_items="false"
       split_open="false"
       link_styles="false" />
    <inkscape:path-effect
       effect="mirror_symmetry"
       start_point="98.566595,71.702083"
       end_point="98.566595,105.85045"
       center_point="98.566595,88.776266"
       id="path-effect1-1"
       is_visible="true"
       lpeversion="1.2"
       lpesatellites=""
       mode="free"
       discard_orig_path="false"
       fuse_paths="false"
       oposite_fuse="false"
       split_items="false"
       split_open="false"
       link_styles="false" />
    <inkscape:path-effect
       effect="mirror_symmetry"
       start_point="26.702246,211.93125"
       end_point="26.702246,246.14243"
       center_point="26.702246,229.03684"
       id="path-effect8"
       is_visible="true"
       lpeversion="1.2"
       lpesatellites=""
       mode="free"
       discard_orig_path="false"
       fuse_paths="false"
       oposite_fuse="false"
       split_items="false"
       split_open="false"
       link_styles="false" />
    <linearGradient
       inkscape:collect="always"
       xlink:href="#linearGradient71"
       id="linearGradient70"
       x1="60.486919"
       y1="166.54201"
       x2="60.486919"
       y2="169.38318"
       gradientUnits="userSpaceOnUse"
       gradientTransform="translate(-41.87548,49.12414)" />
    <linearGradient
       id="linearGradient71"
       inkscape:collect="always">
      <stop
         style="stop-color:#008000;stop-opacity:1;"
         offset="0"
         id="stop71" />
      <stop
         style="stop-color:#008000;stop-opacity:0;"
         offset="1"
         id="stop72" />
    </linearGradient>
    <inkscape:path-effect
       effect="mirror_symmetry"
       start_point="92.440541,70.19058"
       end_point="92.440541,135.99164"
       center_point="92.440541,103.09111"
       id="path-effect4"
       is_visible="false"
       lpeversion="1.2"
       lpesatellites=""
       mode="free"
       discard_orig_path="false"
       fuse_paths="false"
       oposite_fuse="false"
       split_items="false"
       split_open="false"
       link_styles="false" />
    <inkscape:path-effect
       effect="mirror_symmetry"
       start_point="92.440541,70.19058"
       end_point="92.440541,135.99164"
       center_point="92.440541,103.09111"
       id="path-effect4-4"
       is_visible="false"
       lpeversion="1.2"
       lpesatellites=""
       mode="free"
       discard_orig_path="false"
       fuse_paths="false"
       oposite_fuse="false"
       split_items="false"
       split_open="false"
       link_styles="false" />
  </defs>
  <g
     inkscape:label="Warstwa 1"
     inkscape:groupmode="layer"
     id="layer1"
     transform="translate(-76.491218,-70.19058)">
    <path
       id="path68-9-4-8"
       style="color:#000000;fill:#024f12;fill-opacity:1;-inkscape-stroke:none"
       d="M 94.367129 70.19058 C 89.518844 70.19058 85.12941 70.536293 81.931713 71.100602 C 80.332904 71.382762 79.033502 71.716665 78.103523 72.104675 C 77.861873 72.205475 77.646397 72.310195 77.454467 72.420935 L 77.454467 73.333024 L 77.4555 172.20037 L 78.205325 172.20037 L 78.204292 73.262227 L 85.316002 73.557816 L 78.584114 74.576876 L 78.584114 75.37631 L 78.58463 172.20037 L 79.334455 172.20037 L 79.333939 75.616089 C 80.074088 75.832228 80.939744 76.029117 81.931713 76.204166 C 85.12941 76.768446 89.518844 77.114188 94.367129 77.114188 C 97.768996 77.114188 100.91262 76.935585 103.60791 76.638765 L 104.71895 84.293078 L 109.40032 82.48492 L 109.8866 82.296818 L 110.15015 82.195015 L 110.15015 75.37631 L 110.15015 74.576876 L 103.41826 73.557816 L 110.52997 73.262227 L 110.52893 172.20037 L 111.27876 172.20037 L 111.27979 73.333024 L 111.27979 72.420935 C 111.08786 72.310195 110.87239 72.205475 110.63074 72.104675 C 109.70077 71.716665 108.40139 71.382762 106.80255 71.100602 C 103.60487 70.536293 99.215436 70.19058 94.367129 70.19058 z M 94.367129 70.939888 C 99.179685 70.939888 103.53842 71.285602 106.6718 71.838541 C 107.8952 72.054441 108.92498 72.303756 109.72123 72.569246 L 102.08294 73.110815 L 102.08294 73.854956 L 102.08294 76.043453 C 99.757335 76.246723 97.142647 76.364363 94.367129 76.364363 C 91.591612 76.364363 88.976929 76.246723 86.651321 76.043453 L 86.651321 73.854956 L 86.651321 73.110815 L 79.013028 72.569246 C 79.809277 72.303756 80.839055 72.054441 82.062454 71.838541 C 85.195821 71.285602 89.554604 70.939888 94.367129 70.939888 z M 85.90098 73.996032 L 85.90098 75.975757 C 84.487651 75.836797 83.192973 75.665717 82.062454 75.466227 C 81.371945 75.344367 80.749383 75.210379 80.190734 75.069869 L 85.90098 73.996032 z M 102.83328 73.996032 L 104.96493 74.397042 L 108.54301 75.069869 L 108.54353 75.069869 L 109.40032 75.231099 L 109.40032 75.616089 L 109.40032 77.698132 L 109.40032 81.107743 L 104.24095 75.814526 C 103.78034 75.870426 103.32446 75.927457 102.83328 75.975757 L 102.83328 73.996032 z M 104.42181 77.066646 L 109.04892 81.823462 L 105.32202 83.263684 L 104.42181 77.066646 z " />
    <path
       style="display:inline;fill:none;stroke:#024f12;stroke-width:0.75;stroke-dasharray:2.25, 0.75;stroke-dashoffset:2.1;stroke-opacity:0.67"
       d="M 86.232434,76.562537 V 172.01009"
       id="path1"
       sodipodi:nodetypes="cc" />
    <path
       style="display:inline;fill:none;stroke:#024f12;stroke-width:0.75;stroke-dasharray:2.25, 0.75;stroke-dashoffset:2.1;stroke-opacity:0.67"
       d="M 102.50201,76.562537 V 172.01009"
       id="path1-9"
       sodipodi:nodetypes="cc" />
    <path
       style="color:#000000;fill:#024f12;fill-opacity:1;stroke-dasharray:2.25, 0.75;stroke-dashoffset:2.1;-inkscape-stroke:none"
       d="m 109.40015,76.5625 v 0.150391 h 0.75 V 76.5625 Z m 0,0.900391 v 2.25 h 0.75 v -2.25 z m 0,3 v 2.25 h 0.75 v -2.25 z m 0,3 v 2.25 h 0.75 v -2.25 z m 0,3 v 2.25 h 0.75 v -2.25 z m 0,3 v 2.25 h 0.75 v -2.25 z m 0,3 v 2.25 h 0.75 v -2.25 z m 0,3 v 2.25 h 0.75 v -2.25 z m 0,3 v 2.249999 h 0.75 v -2.249999 z m 0,2.999999 v 2.25 h 0.75 v -2.25 z m 0,3 v 2.25 h 0.75 v -2.25 z m 0,3 v 2.25 h 0.75 v -2.25 z m 0,3 v 2.25 h 0.75 v -2.25 z m 0,3 v 2.25 h 0.75 v -2.25 z m 0,3 v 2.25 h 0.75 v -2.25 z m 0,3 v 2.25 h 0.75 v -2.25 z m 0,3 v 2.25 h 0.75 v -2.25 z m 0,3 v 2.25 h 0.75 v -2.25 z m 0,3 v 2.25 h 0.75 v -2.25 z m 0,3 v 2.25 h 0.75 v -2.25 z m 0,3 v 2.25 h 0.75 v -2.25 z m 0,3 v 2.25 h 0.75 v -2.25 z m 0,3 v 2.25 h 0.75 v -2.25 z m 0,3 v 2.25 h 0.75 v -2.25 z m 0,3 v 2.25 h 0.75 v -2.25 z m 0,3 v 2.25 h 0.75 v -2.25 z m 0,3 v 2.25 h 0.75 v -2.25 z m 0,3 v 2.25 h 0.75 v -2.25 z m 0,3 v 2.25 h 0.75 v -2.25 z m 0,3 v 2.25 h 0.75 v -2.25 z m 0,3 v 2.25 h 0.75 v -2.25 z m 0,3 v 2.25 h 0.75 v -2.25 z m 0,3 v 1.54688 h 0.75 v -1.54688 z"
       id="path1-9-0" />
  </g>
  <metadata
     id="metadata4">
    <rdf:RDF>
      <cc:Work
         rdf:about="">
        <dc:creator>
          <cc:Agent>
            <dc:title>Dariusz Rzeźnik</dc:title>
          </cc:Agent>
        </dc:creator>
      </cc:Work>
    </rdf:RDF>
  </metadata>
</svg>
