<?xml version="1.0" encoding="UTF-8" standalone="no"?>
<!-- Created with Inkscape (http://www.inkscape.org/) -->

<svg
   width="35.751999mm"
   height="70.707001mm"
   viewBox="0 0 35.751999 70.707"
   version="1.1"
   id="svg1"
   inkscape:version="1.3 (0e150ed6c4, 2023-07-21)"
   sodipodi:docname="rekaw.svg"
   xmlns:inkscape="http://www.inkscape.org/namespaces/inkscape"
   xmlns:sodipodi="http://sodipodi.sourceforge.net/DTD/sodipodi-0.dtd"
   xmlns:xlink="http://www.w3.org/1999/xlink"
   xmlns="http://www.w3.org/2000/svg"
   xmlns:svg="http://www.w3.org/2000/svg"
   xmlns:rdf="http://www.w3.org/1999/02/22-rdf-syntax-ns#"
   xmlns:cc="http://creativecommons.org/ns#"
   xmlns:dc="http://purl.org/dc/elements/1.1/">
  <sodipodi:namedview
     id="namedview1"
     pagecolor="#505050"
     bordercolor="#eeeeee"
     borderopacity="1"
     inkscape:showpageshadow="0"
     inkscape:pageopacity="0"
     inkscape:pagecheckerboard="0"
     inkscape:deskcolor="#505050"
     inkscape:document-units="mm"
     inkscape:zoom="2.9757808"
     inkscape:cx="114.0877"
     inkscape:cy="178.60858"
     inkscape:window-width="3440"
     inkscape:window-height="1377"
     inkscape:window-x="1912"
     inkscape:window-y="-8"
     inkscape:window-maximized="1"
     inkscape:current-layer="layer1" />
  <defs
     id="defs1">
    <inkscape:path-effect
       effect="mirror_symmetry"
       start_point="105,71.702083"
       end_point="105,105.85045"
       center_point="105,88.776266"
       id="path-effect2"
       is_visible="true"
       lpeversion="1.2"
       lpesatellites=""
       mode="free"
       discard_orig_path="false"
       fuse_paths="false"
       oposite_fuse="false"
       split_items="false"
       split_open="false"
       link_styles="false" />
    <inkscape:path-effect
       effect="mirror_symmetry"
       start_point="98.566595,71.702083"
       end_point="98.566595,105.85045"
       center_point="98.566595,88.776266"
       id="path-effect1"
       is_visible="true"
       lpeversion="1.2"
       lpesatellites=""
       mode="free"
       discard_orig_path="false"
       fuse_paths="false"
       oposite_fuse="false"
       split_items="false"
       split_open="false"
       link_styles="false" />
    <inkscape:path-effect
       effect="mirror_symmetry"
       start_point="98.566595,71.702083"
       end_point="98.566595,105.85045"
       center_point="98.566595,88.776266"
       id="path-effect1-1"
       is_visible="true"
       lpeversion="1.2"
       lpesatellites=""
       mode="free"
       discard_orig_path="false"
       fuse_paths="false"
       oposite_fuse="false"
       split_items="false"
       split_open="false"
       link_styles="false" />
    <inkscape:path-effect
       effect="mirror_symmetry"
       start_point="26.702246,211.93125"
       end_point="26.702246,246.14243"
       center_point="26.702246,229.03684"
       id="path-effect8"
       is_visible="true"
       lpeversion="1.2"
       lpesatellites=""
       mode="free"
       discard_orig_path="false"
       fuse_paths="false"
       oposite_fuse="false"
       split_items="false"
       split_open="false"
       link_styles="false" />
    <linearGradient
       inkscape:collect="always"
       xlink:href="#linearGradient71"
       id="linearGradient70"
       x1="60.486919"
       y1="166.54201"
       x2="60.486919"
       y2="169.38318"
       gradientUnits="userSpaceOnUse"
       gradientTransform="translate(-41.87548,49.12414)" />
    <linearGradient
       id="linearGradient71"
       inkscape:collect="always">
      <stop
         style="stop-color:#008000;stop-opacity:1;"
         offset="0"
         id="stop71" />
      <stop
         style="stop-color:#008000;stop-opacity:0;"
         offset="1"
         id="stop72" />
    </linearGradient>
    <inkscape:path-effect
       effect="mirror_symmetry"
       start_point="92.440541,70.19058"
       end_point="92.440541,135.99164"
       center_point="92.440541,103.09111"
       id="path-effect4"
       is_visible="true"
       lpeversion="1.2"
       lpesatellites=""
       mode="free"
       discard_orig_path="false"
       fuse_paths="false"
       oposite_fuse="false"
       split_items="false"
       split_open="false"
       link_styles="false" />
    <inkscape:path-effect
       effect="mirror_symmetry"
       start_point="94.359896,70.19058"
       end_point="94.359896,140.89758"
       center_point="94.359896,105.54408"
       id="path-effect3"
       is_visible="true"
       lpeversion="1.2"
       lpesatellites=""
       mode="free"
       discard_orig_path="false"
       fuse_paths="false"
       oposite_fuse="false"
       split_items="false"
       split_open="false"
       link_styles="false" />
  </defs>
  <g
     inkscape:label="Warstwa 1"
     inkscape:groupmode="layer"
     id="layer1"
     transform="translate(-76.491218,-70.19058)">
    <path
       id="path25-6-7-9-3"
       style="color:#000000;fill:#024f12;fill-opacity:1;-inkscape-stroke:none;paint-order:stroke fill markers"
       d="m 94.359896,70.19058 v 0.74983 c -4.81261,0 -9.17126,0.3457 -12.304677,0.89865 -1.566709,0.27648 -2.829167,0.60643 -3.669543,0.95705 -0.420189,0.17531 -0.733047,0.35753 -0.91829,0.51728 -0.185244,0.15975 -0.226343,0.26841 -0.226343,0.33796 0,0.0696 0.0411,0.18028 0.226343,0.34004 0.185243,0.15975 0.498101,0.34041 0.91829,0.51573 0.840376,0.35062 2.102834,0.68263 3.669543,0.95911 3.133417,0.55296 7.492067,0.89814 12.304677,0.89814 v 0.74982 c -4.84837,0 -9.2377,-0.34572 -12.435418,-0.91002 -1.598857,-0.28215 -2.898203,-0.61606 -3.82819,-1.00407 -0.332975,-0.13893 -0.61659,-0.28472 -0.855245,-0.44494 v 66.14242 H 76.491218 V 73.65135 c 0,-0.35666 0.20548,-0.66218 0.486275,-0.90433 0.280794,-0.24216 0.653802,-0.44833 1.118795,-0.64234 0.929987,-0.38801 2.229333,-0.72192 3.82819,-1.00407 3.197718,-0.56431 7.587048,-0.91003 12.435418,-0.91003 z m 0,0 v 0.74983 c 4.81261,0 9.171264,0.3457 12.304674,0.89865 1.56671,0.27648 2.82917,0.60643 3.66955,0.95705 0.42019,0.17531 0.73304,0.35753 0.91829,0.51728 0.18524,0.15975 0.22634,0.26841 0.22634,0.33796 0,0.0696 -0.0411,0.18028 -0.22634,0.34004 -0.18525,0.15975 -0.4981,0.34041 -0.91829,0.51573 -0.84038,0.35062 -2.10284,0.68263 -3.66955,0.95911 -3.13341,0.55296 -7.492064,0.89814 -12.304674,0.89814 v 0.74982 c 4.84837,0 9.237704,-0.34572 12.435414,-0.91002 1.59886,-0.28215 2.89821,-0.61606 3.82819,-1.00407 0.33298,-0.13893 0.61659,-0.28472 0.85525,-0.44494 v 66.14242 h 0.74982 V 73.65135 c 0,-0.35666 -0.20548,-0.66218 -0.48627,-0.90433 -0.28079,-0.24216 -0.6538,-0.44833 -1.1188,-0.64234 -0.92998,-0.38801 -2.22933,-0.72192 -3.82819,-1.00407 -3.19771,-0.56431 -7.587044,-0.91003 -12.435414,-0.91003 z"
       sodipodi:nodetypes="ccsssssssccsscccssssc"
       inkscape:path-effect="#path-effect3"
       inkscape:original-d="m 94.359896,70.19058 v 0.74983 c -4.81261,0 -9.17126,0.3457 -12.304677,0.89865 -1.566709,0.27648 -2.829167,0.60643 -3.669543,0.95705 -0.420189,0.17531 -0.733047,0.35753 -0.91829,0.51728 -0.185244,0.15975 -0.226343,0.26841 -0.226343,0.33796 0,0.0696 0.0411,0.18028 0.226343,0.34004 0.185243,0.15975 0.498101,0.34041 0.91829,0.51573 0.840376,0.35062 2.102834,0.68263 3.669543,0.95911 3.133417,0.55296 7.492067,0.89814 12.304677,0.89814 v 0.74982 c -4.84837,0 -9.2377,-0.34572 -12.435418,-0.91002 -1.598857,-0.28215 -2.898203,-0.61606 -3.82819,-1.00407 -0.332975,-0.13893 -0.61659,-0.28472 -0.855245,-0.44494 v 66.14242 H 76.491218 V 73.65135 c 0,-0.35666 0.20548,-0.66218 0.486275,-0.90433 0.280794,-0.24216 0.653802,-0.44833 1.118795,-0.64234 0.929987,-0.38801 2.229333,-0.72192 3.82819,-1.00407 3.197718,-0.56431 7.587048,-0.91003 12.435418,-0.91003 z"
       transform="translate(0.00732145)" />
  </g>
  <metadata
     id="metadata4">
    <rdf:RDF>
      <cc:Work
         rdf:about="">
        <dc:creator>
          <cc:Agent>
            <dc:title>Dariusz Rzeźnik</dc:title>
          </cc:Agent>
        </dc:creator>
      </cc:Work>
    </rdf:RDF>
  </metadata>
</svg>
