<?xml version="1.0" encoding="UTF-8" standalone="no"?>
<!-- Created with Inkscape (http://www.inkscape.org/) -->

<svg
   width="35.751678mm"
   height="70.707001mm"
   viewBox="0 0 35.751678 70.707001"
   version="1.1"
   id="svg1"
   inkscape:version="1.3 (0e150ed6c4, 2023-07-21)"
   sodipodi:docname="worek_z.svg"
   xmlns:inkscape="http://www.inkscape.org/namespaces/inkscape"
   xmlns:sodipodi="http://sodipodi.sourceforge.net/DTD/sodipodi-0.dtd"
   xmlns:xlink="http://www.w3.org/1999/xlink"
   xmlns="http://www.w3.org/2000/svg"
   xmlns:svg="http://www.w3.org/2000/svg">
  <sodipodi:namedview
     id="namedview1"
     pagecolor="#505050"
     bordercolor="#eeeeee"
     borderopacity="1"
     inkscape:showpageshadow="0"
     inkscape:pageopacity="0"
     inkscape:pagecheckerboard="0"
     inkscape:deskcolor="#505050"
     inkscape:document-units="mm"
     inkscape:zoom="4"
     inkscape:cx="161.625"
     inkscape:cy="99.875"
     inkscape:window-width="3440"
     inkscape:window-height="1377"
     inkscape:window-x="1912"
     inkscape:window-y="-8"
     inkscape:window-maximized="1"
     inkscape:current-layer="path1" />
  <defs
     id="defs1">
    <inkscape:path-effect
       effect="mirror_symmetry"
       start_point="92.443716,70.19058"
       end_point="92.443716,122.43359"
       center_point="92.443716,96.312085"
       id="path-effect20"
       is_visible="true"
       lpeversion="1.2"
       lpesatellites=""
       mode="free"
       discard_orig_path="false"
       fuse_paths="false"
       oposite_fuse="false"
       split_items="false"
       split_open="false"
       link_styles="false" />
    <inkscape:path-effect
       effect="mirror_symmetry"
       start_point="92.443714,70.190575"
       end_point="92.443714,122.80859"
       center_point="92.443714,96.499583"
       id="path-effect19"
       is_visible="true"
       lpeversion="1.2"
       lpesatellites=""
       mode="free"
       discard_orig_path="false"
       fuse_paths="false"
       oposite_fuse="false"
       split_items="false"
       split_open="false"
       link_styles="false" />
    <inkscape:path-effect
       effect="mirror_symmetry"
       start_point="105,71.702083"
       end_point="105,105.85045"
       center_point="105,88.776266"
       id="path-effect2"
       is_visible="true"
       lpeversion="1.2"
       lpesatellites=""
       mode="free"
       discard_orig_path="false"
       fuse_paths="false"
       oposite_fuse="false"
       split_items="false"
       split_open="false"
       link_styles="false" />
    <inkscape:path-effect
       effect="mirror_symmetry"
       start_point="98.566595,71.702083"
       end_point="98.566595,105.85045"
       center_point="98.566595,88.776266"
       id="path-effect1"
       is_visible="false"
       lpeversion="1.2"
       lpesatellites=""
       mode="free"
       discard_orig_path="false"
       fuse_paths="false"
       oposite_fuse="false"
       split_items="false"
       split_open="false"
       link_styles="false" />
    <inkscape:path-effect
       effect="mirror_symmetry"
       start_point="98.566595,71.702083"
       end_point="98.566595,105.85045"
       center_point="98.566595,88.776266"
       id="path-effect1-1"
       is_visible="true"
       lpeversion="1.2"
       lpesatellites=""
       mode="free"
       discard_orig_path="false"
       fuse_paths="false"
       oposite_fuse="false"
       split_items="false"
       split_open="false"
       link_styles="false" />
    <inkscape:path-effect
       effect="mirror_symmetry"
       start_point="26.702246,211.93125"
       end_point="26.702246,246.14243"
       center_point="26.702246,229.03684"
       id="path-effect8"
       is_visible="true"
       lpeversion="1.2"
       lpesatellites=""
       mode="free"
       discard_orig_path="false"
       fuse_paths="false"
       oposite_fuse="false"
       split_items="false"
       split_open="false"
       link_styles="false" />
    <linearGradient
       inkscape:collect="always"
       xlink:href="#linearGradient71"
       id="linearGradient70"
       x1="60.486919"
       y1="166.54201"
       x2="60.486919"
       y2="169.38318"
       gradientUnits="userSpaceOnUse"
       gradientTransform="translate(-41.87548,49.12414)" />
    <linearGradient
       id="linearGradient71"
       inkscape:collect="always">
      <stop
         style="stop-color:#008000;stop-opacity:1;"
         offset="0"
         id="stop71" />
      <stop
         style="stop-color:#008000;stop-opacity:0;"
         offset="1"
         id="stop72" />
    </linearGradient>
    <inkscape:path-effect
       effect="mirror_symmetry"
       start_point="92.440541,70.19058"
       end_point="92.440541,135.99164"
       center_point="92.440541,103.09111"
       id="path-effect4"
       is_visible="true"
       lpeversion="1.2"
       lpesatellites=""
       mode="free"
       discard_orig_path="false"
       fuse_paths="false"
       oposite_fuse="false"
       split_items="false"
       split_open="false"
       link_styles="false" />
    <marker
       style="overflow:visible"
       id="Scissors"
       refX="0"
       refY="0"
       orient="auto"
       inkscape:stockid="Scissors"
       markerWidth="4.0009999"
       markerHeight="0.001"
       viewBox="0 0 1 1"
       inkscape:isstock="true"
       inkscape:collect="always"
       preserveAspectRatio="xMidYMid"
       markerUnits="strokeWidth">
      <path
         style="fill:context-stroke"
         d="M 9.0898857,-3.6061018 C 8.1198849,-4.7769976 6.3697607,-4.7358294 5.0623558,-4.2327734 l -8.2124046,3.0779029 c -2.3882933,-1.3067135 -4.7482873,-0.9325372 -4.7482873,-1.5687873 0,-0.4973164 0.4566662,-0.3883222 0.3883068,-1.6831941 -0.065635,-1.2432767 -1.3635771,-2.1630796 -2.5903987,-2.0816435 -1.227271,-0.00735 -2.499439,0.9331613 -2.510341,2.2300611 -0.09143,1.3063864 1.007209,2.5196896 2.306764,2.6052316 1.5223406,0.2266616 4.218258,-0.6955566 5.482945,1.57086006 -0.9422847,1.73825774 -2.6140244,1.74307674 -4.1255107,1.65607034 -1.2548743,-0.072235 -2.7620933,0.2873979 -3.3606483,1.5208605 -0.578367,1.1820862 -0.0112,2.8646022 1.316749,3.226412 1.3401912,0.4918277 3.1806689,-0.129711 3.4993722,-1.6707242 0.2456585,-1.187823 -0.5953659,-1.7459574 -0.2725074,-2.1771537 0.2436135,-0.32536 1.7907806,-0.1368452 4.5471053,-1.3748244 L 5.6763468,4.2330688 C 6.8000164,4.5467672 8.1730685,4.5362646 9.1684433,3.4313614 l -9.22008423,-3.48508362 z m -18.3078016,-1.900504 c 1.294559,0.7227998 1.1888392,2.6835702 -0.1564272,3.0632889 -1.2165179,0.423661 -2.7710269,-0.7589694 -2.3831779,-2.0774648 0.227148,-1.0818519 1.653387,-1.480632 2.5396051,-0.9858241 z m 0.056264,8.0173649 c 1.3508301,0.4988648 1.1214429,2.7844356 -0.2522207,3.091609 -0.9110594,0.3163391 -2.2135494,-0.1387976 -2.3056964,-1.2121394 -0.177609,-1.305055 1.356085,-2.4841482 2.5579171,-1.8794696 z"
         transform="scale(0.7)"
         id="path29" />
    </marker>
  </defs>
  <g
     inkscape:label="Warstwa 1"
     inkscape:groupmode="layer"
     id="layer1"
     transform="translate(-74.564702,-70.190575)">
    <g
       id="path1">
      <g
         id="g19"
         inkscape:path-effect="#path-effect20">
        <g
           id="g2"
           inkscape:label="g1"
           transform="translate(0.003175)">
          <path
             id="path68-9-4"
             style="color:#000000;fill:#024f12;fill-opacity:1;-inkscape-stroke:none"
             d="m 104.83546,211.60879 c -4.848323,0 -9.237718,0.34571 -12.435415,0.91002 -1.598845,0.28216 -2.89821,0.61606 -3.82819,1.00407 -0.24165,0.10083 -0.457123,0.20552 -0.649056,0.31626 v 0.91209 l 0.288321,49.10057 h 0.749825 l -0.288321,-49.17136 7.11171,0.29559 -6.731889,1.01905 v 0.79944 l -0.284737,47.05728 h 0.749825 l 0.284738,-46.8175 c 0.740147,0.21614 1.605803,0.41303 2.597774,0.58808 3.197697,0.56428 7.587092,0.91002 12.435415,0.91002 v -0.74983 c -2.77552,0 -5.390197,-0.11764 -7.715807,-0.32091 v -2.1885 -0.74414 l -7.638293,-0.54156 c 0.796255,-0.26549 1.826023,-0.51481 3.049426,-0.73071 3.133395,-0.55294 7.492114,-0.89865 12.304674,-0.89865 z m -8.466148,3.80545 v 1.97973 c -1.413326,-0.13896 -2.707983,-0.31004 -3.838526,-0.50953 -0.690514,-0.12186 -1.313073,-0.25585 -1.87172,-0.39636 z m 8.466148,-3.80545 c 4.84832,0 9.23772,0.34571 12.43542,0.91002 1.59884,0.28216 2.89821,0.61606 3.82819,1.00407 0.24165,0.10083 0.45712,0.20552 0.64905,0.31626 v 0.91209 l -0.28832,49.10057 h -0.74982 l 0.28832,-49.17136 -7.11171,0.29559 6.73189,1.01905 v 0.79944 l 0.28473,47.05728 h -0.74982 l -0.28474,-46.8175 c -0.74015,0.21614 -1.6058,0.41303 -2.59777,0.58808 -3.1977,0.56428 -7.5871,0.91002 -12.43542,0.91002 v -0.74983 c 2.77552,0 5.3902,-0.11764 7.71581,-0.32091 v -2.1885 -0.74414 l 7.63829,-0.54156 c -0.79626,-0.26549 -1.82602,-0.51481 -3.04943,-0.73071 -3.13339,-0.55294 -7.49211,-0.89865 -12.30467,-0.89865 z m 8.46615,3.80545 v 1.97973 c 1.41332,-0.13896 2.70798,-0.31004 3.83852,-0.50953 0.69052,-0.12186 1.31308,-0.25585 1.87172,-0.39636 z"
             transform="translate(-12.394919,-141.41821)"
             sodipodi:nodetypes="ccccccccccccccccccccccccccccc"
             inkscape:original-d="m 104.83546,211.60879 c -4.848323,0 -9.237718,0.34571 -12.435415,0.91002 -1.598845,0.28216 -2.89821,0.61606 -3.82819,1.00407 -0.24165,0.10083 -0.457123,0.20552 -0.649056,0.31626 v 0.91209 l 0.288321,49.10057 h 0.749825 l -0.288321,-49.17136 7.11171,0.29559 -6.731889,1.01905 v 0.79944 l -0.284737,47.05728 h 0.749825 l 0.284738,-46.8175 c 0.740147,0.21614 1.605803,0.41303 2.597774,0.58808 3.197697,0.56428 7.587092,0.91002 12.435415,0.91002 v -0.74983 c -2.77552,0 -5.390197,-0.11764 -7.715807,-0.32091 v -2.1885 -0.74414 l -7.638293,-0.54156 c 0.796255,-0.26549 1.826023,-0.51481 3.049426,-0.73071 3.133395,-0.55294 7.492114,-0.89865 12.304674,-0.89865 z m -8.466148,3.80545 v 1.97973 c -1.413326,-0.13896 -2.707983,-0.31004 -3.838526,-0.50953 -0.690514,-0.12186 -1.313073,-0.25585 -1.87172,-0.39636 z" />
          <path
             style="fill:none;stroke:#024f12;stroke-width:0.75;stroke-dasharray:2.25, 0.75;stroke-dashoffset:2.1;stroke-opacity:0.67"
             d="M 84.305754,76.562537 V 122.43359 M 100.57533,76.562537 v 45.871053"
             id="path1-6"
             sodipodi:nodetypes="cc"
             inkscape:original-d="m 84.305754,76.562537 0,45.871053" />
        </g>
        <path
           style="fill:none;stroke:#024f12;stroke-width:0.750001;stroke-dasharray:none;stroke-dashoffset:0;stroke-opacity:1;marker-mid:url(#Scissors)"
           d="m 75.819376,122.43359 h 16.614007 m 16.634677,0 H 92.454049"
           id="path1-04"
           sodipodi:nodetypes="cc"
           inkscape:original-d="m 75.819376,122.43359 16.614007,0" />
        <path
           style="fill:#ff0000;stroke:#024f12;stroke-width:0.25;stroke-dasharray:2.25, 0.750001;stroke-dashoffset:1.125;stroke-opacity:1"
           d="m 75.995061,121.68359 h 16.438322 m 16.458987,0 H 92.454049"
           id="path17"
           sodipodi:nodetypes="cc"
           inkscape:original-d="M 75.995061,121.68359 H 92.433383" />
      </g>
    </g>
  </g>
</svg>
