<?xml version="1.0" encoding="UTF-8" standalone="no"?>
<!-- Created with Inkscape (http://www.inkscape.org/) -->

<svg
   width="35.751678mm"
   height="70.707001mm"
   viewBox="0 0 35.751678 70.707001"
   version="1.1"
   id="svg1"
   inkscape:version="1.3 (0e150ed6c4, 2023-07-21)"
   sodipodi:docname="worek.svg"
   xmlns:inkscape="http://www.inkscape.org/namespaces/inkscape"
   xmlns:sodipodi="http://sodipodi.sourceforge.net/DTD/sodipodi-0.dtd"
   xmlns:xlink="http://www.w3.org/1999/xlink"
   xmlns="http://www.w3.org/2000/svg"
   xmlns:svg="http://www.w3.org/2000/svg">
  <sodipodi:namedview
     id="namedview1"
     pagecolor="#505050"
     bordercolor="#eeeeee"
     borderopacity="1"
     inkscape:showpageshadow="0"
     inkscape:pageopacity="0"
     inkscape:pagecheckerboard="0"
     inkscape:deskcolor="#505050"
     inkscape:document-units="mm"
     inkscape:zoom="4.2083896"
     inkscape:cx="107.99856"
     inkscape:cy="103.95901"
     inkscape:window-width="3440"
     inkscape:window-height="1377"
     inkscape:window-x="1912"
     inkscape:window-y="-8"
     inkscape:window-maximized="1"
     inkscape:current-layer="path1" />
  <defs
     id="defs1">
    <inkscape:path-effect
       effect="mirror_symmetry"
       start_point="92.443714,70.190575"
       end_point="92.443714,122.80859"
       center_point="92.443714,96.499583"
       id="path-effect19"
       is_visible="true"
       lpeversion="1.2"
       lpesatellites=""
       mode="free"
       discard_orig_path="false"
       fuse_paths="false"
       oposite_fuse="false"
       split_items="false"
       split_open="false"
       link_styles="false" />
    <inkscape:path-effect
       effect="mirror_symmetry"
       start_point="105,71.702083"
       end_point="105,105.85045"
       center_point="105,88.776266"
       id="path-effect2"
       is_visible="true"
       lpeversion="1.2"
       lpesatellites=""
       mode="free"
       discard_orig_path="false"
       fuse_paths="false"
       oposite_fuse="false"
       split_items="false"
       split_open="false"
       link_styles="false" />
    <inkscape:path-effect
       effect="mirror_symmetry"
       start_point="98.566595,71.702083"
       end_point="98.566595,105.85045"
       center_point="98.566595,88.776266"
       id="path-effect1"
       is_visible="false"
       lpeversion="1.2"
       lpesatellites=""
       mode="free"
       discard_orig_path="false"
       fuse_paths="false"
       oposite_fuse="false"
       split_items="false"
       split_open="false"
       link_styles="false" />
    <inkscape:path-effect
       effect="mirror_symmetry"
       start_point="98.566595,71.702083"
       end_point="98.566595,105.85045"
       center_point="98.566595,88.776266"
       id="path-effect1-1"
       is_visible="true"
       lpeversion="1.2"
       lpesatellites=""
       mode="free"
       discard_orig_path="false"
       fuse_paths="false"
       oposite_fuse="false"
       split_items="false"
       split_open="false"
       link_styles="false" />
    <inkscape:path-effect
       effect="mirror_symmetry"
       start_point="26.702246,211.93125"
       end_point="26.702246,246.14243"
       center_point="26.702246,229.03684"
       id="path-effect8"
       is_visible="true"
       lpeversion="1.2"
       lpesatellites=""
       mode="free"
       discard_orig_path="false"
       fuse_paths="false"
       oposite_fuse="false"
       split_items="false"
       split_open="false"
       link_styles="false" />
    <linearGradient
       inkscape:collect="always"
       xlink:href="#linearGradient71"
       id="linearGradient70"
       x1="60.486919"
       y1="166.54201"
       x2="60.486919"
       y2="169.38318"
       gradientUnits="userSpaceOnUse"
       gradientTransform="translate(-41.87548,49.12414)" />
    <linearGradient
       id="linearGradient71"
       inkscape:collect="always">
      <stop
         style="stop-color:#008000;stop-opacity:1;"
         offset="0"
         id="stop71" />
      <stop
         style="stop-color:#008000;stop-opacity:0;"
         offset="1"
         id="stop72" />
    </linearGradient>
  </defs>
  <g
     inkscape:label="Warstwa 1"
     inkscape:groupmode="layer"
     id="layer1"
     transform="translate(-74.564702,-70.190575)">
    <g
       id="path1">
      <path
         id="path19"
         style="color:#000000;fill:#024f12;-inkscape-stroke:none"
         d="m 74.574219,122.05859 v 0.75 h 17.86914 v -0.75 z M 92.443714,70.190575 c -4.848365,0 -9.237702,0.345713 -12.435417,0.910022 -1.598855,0.28215 -2.898204,0.616064 -3.82819,1.004073 -0.464992,0.19401 -0.838001,0.400178 -1.118794,0.642338 -0.280795,0.24215 -0.486276,0.547678 -0.486276,0.904338 V 121.5585 h -10e-4 v 0.25011 h 10e-4 v 0.62529 h 0.749825 v -0.62529 H 75.699 V 121.5585 H 75.324862 V 74.755154 c 0.238655,0.16022 0.522271,0.306005 0.855245,0.444934 0.929986,0.38801 2.229335,0.721924 3.82819,1.004074 3.197715,0.564299 7.587052,0.910021 12.435417,0.910021 v -0.749825 c -4.812605,0 -9.171261,-0.345176 -12.304675,-0.898136 -1.566708,-0.27648 -2.829169,-0.608495 -3.669544,-0.959115 -0.420188,-0.175319 -0.733047,-0.35598 -0.91829,-0.51573 -0.185243,-0.15976 -0.226343,-0.270431 -0.226343,-0.340031 0,-0.06955 0.0411,-0.178214 0.226343,-0.337964 0.185243,-0.15975 0.498102,-0.341971 0.91829,-0.517281 0.840375,-0.35062 2.102836,-0.680568 3.669544,-0.957048 3.133414,-0.552949 7.49207,-0.898653 12.304675,-0.898653 z M 76.449341,121.5585 v 0.25011 h 2.249992 v -0.25011 z m 2.999817,0 v 0.25011 h 2.249992 v -0.25011 z m 2.999817,0 v 0.25011 h 2.249992 v -0.25011 z m 3.000334,0 v 0.25011 h 2.249992 v -0.25011 z m 2.999817,0 v 0.25011 h 2.249992 v -0.25011 z m 3.000333,0 v 0.25011 h 0.993738 v -0.25011 z m 18.863751,0.50009 v 0.75 H 92.444069 v -0.75 z M 92.443714,70.190575 c 4.848365,0 9.237706,0.345713 12.435416,0.910022 1.59886,0.28215 2.8982,0.616064 3.82819,1.004073 0.46499,0.19401 0.838,0.400178 1.1188,0.642338 0.28079,0.24215 0.48627,0.547678 0.48627,0.904338 V 121.5585 h 0.001 v 0.25011 h -0.001 v 0.62529 h -0.74982 v -0.62529 h -0.37414 v -0.25011 h 0.37414 V 74.755154 c -0.23866,0.16022 -0.52227,0.306005 -0.85525,0.444934 -0.92998,0.38801 -2.22933,0.721924 -3.82819,1.004074 -3.19771,0.564299 -7.587051,0.910021 -12.435416,0.910021 v -0.749825 c 4.812605,0 9.171266,-0.345176 12.304676,-0.898136 1.56671,-0.27648 2.82917,-0.608495 3.66954,-0.959115 0.42019,-0.175319 0.73305,-0.35598 0.91829,-0.51573 0.18525,-0.15976 0.22635,-0.270431 0.22635,-0.340031 0,-0.06955 -0.0411,-0.178214 -0.22635,-0.337964 -0.18524,-0.15975 -0.4981,-0.341971 -0.91829,-0.517281 -0.84037,-0.35062 -2.10283,-0.680568 -3.66954,-0.957048 C 101.61498,71.286104 97.256319,70.9404 92.443714,70.9404 Z M 108.43809,121.5585 v 0.25011 h -2.25 v -0.25011 z m -2.99982,0 v 0.25011 h -2.24999 v -0.25011 z m -2.99982,0 v 0.25011 h -2.24999 v -0.25011 z m -3.000331,0 v 0.25011 h -2.249992 v -0.25011 z m -2.999817,0 v 0.25011 H 94.18831 v -0.25011 z m -3.000333,0 v 0.25011 h -0.993738 v -0.25011 z"
         inkscape:path-effect="#path-effect19"
         inkscape:original-d="m 74.574219,122.05859 v 0.75 h 17.86914 v -0.75 z M 92.443714,70.190575 c -4.848365,0 -9.237702,0.345713 -12.435417,0.910022 -1.598855,0.28215 -2.898204,0.616064 -3.82819,1.004073 -0.464992,0.19401 -0.838001,0.400178 -1.118794,0.642338 -0.280795,0.24215 -0.486276,0.547678 -0.486276,0.904338 V 121.5585 h -0.001 v 0.25011 h 0.001 v 0.62529 h 0.749825 v -0.62529 H 75.699 V 121.5585 H 75.324862 V 74.755154 c 0.238655,0.16022 0.522271,0.306005 0.855245,0.444934 0.929986,0.38801 2.229335,0.721924 3.82819,1.004074 3.197715,0.564299 7.587052,0.910021 12.435417,0.910021 v -0.749825 c -4.812605,0 -9.171261,-0.345176 -12.304675,-0.898136 -1.566708,-0.27648 -2.829169,-0.608495 -3.669544,-0.959115 -0.420188,-0.175319 -0.733047,-0.35598 -0.91829,-0.51573 -0.185243,-0.15976 -0.226343,-0.270431 -0.226343,-0.340031 0,-0.06955 0.0411,-0.178214 0.226343,-0.337964 0.185243,-0.15975 0.498102,-0.341971 0.91829,-0.517281 0.840375,-0.35062 2.102836,-0.680568 3.669544,-0.957048 3.133414,-0.552949 7.49207,-0.898653 12.304675,-0.898653 z M 76.449341,121.5585 v 0.25011 h 2.249992 v -0.25011 z m 2.999817,0 v 0.25011 h 2.249992 v -0.25011 z m 2.999817,0 v 0.25011 h 2.249992 v -0.25011 z m 3.000334,0 v 0.25011 h 2.249992 v -0.25011 z m 2.999817,0 v 0.25011 h 2.249992 v -0.25011 z m 3.000333,0 v 0.25011 h 0.993738 v -0.25011 z" />
    </g>
  </g>
</svg>
