<?xml version="1.0" encoding="UTF-8" standalone="no"?>
<!-- Created with Inkscape (http://www.inkscape.org/) -->

<svg
   width="210mm"
   height="111.192mm"
   viewBox="0 0 210 111.19199"
   version="1.1"
   id="svg1"
   inkscape:version="1.3 (0e150ed6c4, 2023-07-21)"
   sodipodi:docname="logo.svg"
   xml:space="preserve"
   xmlns:inkscape="http://www.inkscape.org/namespaces/inkscape"
   xmlns:sodipodi="http://sodipodi.sourceforge.net/DTD/sodipodi-0.dtd"
   xmlns="http://www.w3.org/2000/svg"
   xmlns:svg="http://www.w3.org/2000/svg"><sodipodi:namedview
     id="namedview1"
     pagecolor="#505050"
     bordercolor="#eeeeee"
     borderopacity="1"
     inkscape:showpageshadow="0"
     inkscape:pageopacity="0"
     inkscape:pagecheckerboard="0"
     inkscape:deskcolor="#505050"
     inkscape:document-units="mm"
     inkscape:zoom="1.0895688"
     inkscape:cx="140.88142"
     inkscape:cy="223.4829"
     inkscape:window-width="3440"
     inkscape:window-height="1377"
     inkscape:window-x="1912"
     inkscape:window-y="-8"
     inkscape:window-maximized="1"
     inkscape:current-layer="layer1" /><defs
     id="defs1"><rect
       x="92.973618"
       y="203.7216"
       width="665.85516"
       height="222.86322"
       id="rect1" /><inkscape:perspective
       sodipodi:type="inkscape:persp3d"
       inkscape:vp_x="-183.11486 : -37.308071 : 1"
       inkscape:vp_y="0 : 999.99983 : 0"
       inkscape:vp_z="-195.51425 : -37.308071 : 1"
       inkscape:persp3d-origin="-189.31456 : -86.80799 : 1"
       id="perspective10172" /><symbol
       id="Recycling"><title
         id="title7498">Recycling</title><g
         style="stroke:none"
         id="g7512"><path
           style="stroke-width:0.264583"
           inkscape:connector-curvature="0"
           d="m 14.684375,3.9026042 -1.389063,0.79375 -0.926041,-1.5875 C 12.236979,2.8773437 11.972396,2.7119792 11.608594,2.7119792 H 8.8304687 C 9.0289062,2.9104167 9.0619792,2.9765625 9.1611979,3.1419271 L 10.88099,6.1184896 9.4919271,6.9122396 H 12.93151 Z"
           id="path7500" /><path
           style="stroke-width:0.264583"
           inkscape:connector-curvature="0"
           d="m 14.254427,12.038542 h 1.389063 c 0.826822,0 1.322916,-0.892969 0.926041,-1.5875 l -1.752864,-3.069167 -2.38125,1.3890625 z"
           id="path7502" /><path
           style="stroke-width:0.264583"
           inkscape:connector-curvature="0"
           d="m 12.170833,17.065625 v -1.5875 h 1.852084 c 0.264583,0 0.529166,-0.132292 0.727604,-0.463021 l 1.389062,-2.38125 C 15.875,12.7 15.775781,12.7 15.610417,12.7 h -3.439584 v -1.5875 l -1.719791,2.976562 z"
           id="path7504" /><path
           style="stroke-width:0.264583"
           inkscape:connector-curvature="0"
           d="m 5.3578125,12.7 -0.6945313,1.190625 c -0.396875,0.727604 0.099219,1.5875 0.8929688,1.5875 H 9.0619792 V 12.7 Z"
           id="path7506" /><path
           style="stroke-width:0.264583"
           inkscape:connector-curvature="0"
           d="m 2.0505208,8.4005208 1.3890625,0.79375 -0.9260416,1.5875002 C 2.38125,11.013281 2.38125,11.310937 2.5466146,11.641667 l 1.3559896,2.38125 c 0.066146,-0.264584 0.099219,-0.33073 0.1984375,-0.496094 L 5.8208333,10.55026 7.2098958,11.34401 5.4901042,8.3674479 Z"
           id="path7508" /><path
           style="stroke-width:0.264583"
           inkscape:connector-curvature="0"
           d="M 9.2604167,4.6302083 8.5989583,3.4395833 c -0.4299479,-0.6945312 -1.4221354,-0.6945312 -1.8190104,0 l -1.7528646,3.0427084 2.38125,1.3890625 z"
           id="path7510" /></g></symbol><inkscape:perspective
       id="perspective8310"
       inkscape:persp3d-origin="372.04723 : 164.9787 : 1"
       inkscape:vp_z="744.09446 : 340.37343 : 1"
       inkscape:vp_y="0 : 999.99983 : 0"
       inkscape:vp_x="0 : 340.37343 : 1"
       sodipodi:type="inkscape:persp3d" /><inkscape:perspective
       id="perspective5302"
       inkscape:persp3d-origin="372.04723 : 164.9787 : 1"
       inkscape:vp_z="744.09446 : 340.37343 : 1"
       inkscape:vp_y="0 : 999.99983 : 0"
       inkscape:vp_x="0 : 340.37343 : 1"
       sodipodi:type="inkscape:persp3d" /><symbol
       id="ToiletsMen"><title
         id="title4892">Toilets - Men</title><g
         style="stroke:none"
         id="g4898"><circle
           cx="36"
           cy="9"
           r="5"
           id="circle4894" /><path
           d="m 24,22 v 15.5 a 2.25,2.25 0 0 0 4.5,0 V 23 h 1 v 39.5 a 3,3 0 0 0 6,0 V 40 h 1 v 22.5 a 3,3 0 0 0 6,0 V 23 h 1 v 14.5 a 2.25,2.25 0 0 0 4.5,0 V 22 A 7,7 0 0 0 41,15 H 31 a 7,7 0 0 0 -7,7 z"
           id="path4896"
           inkscape:connector-curvature="0" /></g></symbol></defs><g
     inkscape:label="Warstwa 1"
     inkscape:groupmode="layer"
     id="layer1"><g
       id="g13"
       inkscape:label="g13"
       style="fill:#008000"
       transform="matrix(1.099858,0,0,1.099858,-9.4710664,-23.100717)"><path
         style="font-weight:900;font-size:96px;line-height:1;font-family:'Uni Sans';-inkscape-font-specification:'Uni Sans Heavy';text-align:center;white-space:pre;fill:#ffffff"
         d="m 187.82046,276.2967 h 17.184 v -19.872 h 10.08 c 16.416,0 24.768,-12 24.768,-24.096 0,-12 -8.256,-24 -24.864,-24 h -27.168 z m 17.184,-35.136 v -16.8 h 9.984 c 10.368,-0.096 10.368,16.896 0,16.8 z m 42.144,35.136 h 44.928 v -16.992 h -27.648 v -50.976 h -17.28 z m 85.15196,-67.968 h -15.648 l -23.712,67.968 h 18.432 l 4.224,-13.632 h 18.144 l 4.416,13.632 h 18.432 z m -12.864,39.072 4.992,-19.872 h 0.48 l 4.704,19.872 z m 37.3441,17.568 c 6.336,8.16 14.976,12.288 23.136,12.288 12.48,0 26.304,-7.2 26.88,-20.352 0.768,-16.704 -11.328,-20.928 -23.424,-23.136 -5.28,-1.152 -8.832,-3.072 -9.024,-6.336 0.288,-7.872 12.48,-8.16 19.584,-0.576 l 11.232,-8.64 c -7.008,-8.544 -14.976,-10.848 -23.232,-10.848 -12.48,0 -24.576,7.008 -24.576,20.352 0,12.96 9.984,19.872 20.928,21.6 5.568,0.768 11.808,2.976 11.616,6.816 -0.48,7.296 -15.456,6.912 -22.272,-1.344 z m 106.84792,-40.416 v -16.32 h -53.472 v 16.32 h 18.048 v 51.744 h 17.376 v -51.744 z m 30.43188,15.744 h -29.952 v 16.32 h 29.952 z m 27.16794,-15.648 h 29.952 v -16.32 h -47.328 v 67.968 h 17.376 v -23.424 h 26.208 v -16.032 h -26.208 z m 36.28802,29.28 c 0,15.552 14.112,23.328 28.224,23.328 14.112,0 28.128,-7.776 28.128,-23.328 v -23.232 c 0,-15.552 -14.112,-23.328 -28.224,-23.328 -14.112,0 -28.128,7.68 -28.128,23.328 z m 17.184,-23.232 c 0,-4.992 5.376,-7.68 10.752,-7.68 5.568,0 11.232,2.4 11.232,7.68 v 23.232 c 0,4.896 -5.472,7.392 -10.944,7.392 -5.472,0 -11.04,-2.4 -11.04,-7.392 z m 48.28809,45.6 h 44.928 v -16.992 h -27.648 v -50.976 h -17.28 z"
         id="text1"
         inkscape:label="text1"
         aria-label="PLAST-FOL"
         transform="matrix(0.28357956,0,0.00474905,0.2468596,-16.696597,32.558247)" /><path
         id="rect7"
         style="fill:#ffffff;stroke-width:0.264583"
         d="m 30.41372,62.651078 h 153.20194 l 1.07315,4.005041 -153.201942,-10e-7 z"
         sodipodi:nodetypes="ccccc" /><path
         id="rect7-3"
         style="fill:#ffffff;stroke-width:0.264583"
         d="M 31.511196,21.003363 H 175.63161 l 1.07315,4.005041 -144.120416,-10e-7 z"
         sodipodi:nodetypes="ccccc" /><path
         id="rect7-0"
         style="fill:#ffffff;stroke-width:0.264583"
         d="M 26.768189,118.09481 H 198.47177 l 1.07314,4.00505 H 27.841338 Z" /><rect
         style="fill:#ffffff;fill-opacity:1;stroke-width:0.269209"
         id="rect8-0"
         width="4.7430072"
         height="53.253254"
         x="162.08534"
         y="69.007492"
         transform="matrix(1,0,0.25881905,0.96592583,0,0)" /><path
         id="path9"
         style="fill:#ffffff;fill-opacity:1;stroke-width:0.264583"
         d="M 31.511255,21.003369 A 22.82638,22.82638 0 0 0 8.6847412,43.829883 22.82638,22.82638 0 0 0 31.511255,66.65588 22.82638,22.82638 0 0 0 54.337769,43.829883 22.82638,22.82638 0 0 0 31.511255,21.003369 Z m 0,4.004924 A 18.612663,18.612663 0 0 1 50.124072,43.62111 18.612663,18.612663 0 0 1 31.511255,62.233927 18.612663,18.612663 0 0 1 12.898437,43.62111 18.612663,18.612663 0 0 1 31.511255,25.008293 Z" /><path
         id="rect8-04"
         style="fill:#ffffff;stroke-width:0.269209"
         transform="matrix(1,0,0.25881905,0.96592583,0,0)"
         d="m -3.0593279,45.375888 c 2.1011391,-5.603202 2.92555219,10e-7 2.92555219,10e-7 V 98.629143 H -4.8767829 l 0.00156,-33.767975 c 0,0 -0.2852441,-13.882078 1.815895,-19.48528 z"
         sodipodi:nodetypes="zccccz" /><path
         id="path9-7"
         style="fill:#ffffff;fill-opacity:1;stroke-width:0.264583"
         d="m 175.64561,21.003369 a 22.82638,22.82638 0 0 0 -12.85038,4.004924 h 12.85038 a 18.821335,18.821335 0 0 1 18.82107,18.82159 18.821335,18.821335 0 0 1 -18.82107,18.821073 h -12.85038 a 22.82638,22.82638 0 0 0 12.85038,4.004924 22.82638,22.82638 0 0 0 22.826,-22.825997 22.82638,22.82638 0 0 0 -22.826,-22.826514 z" /><path
         id="path10"
         style="fill:#ffffff;fill-opacity:1;stroke-width:0.264583"
         d="m 31.511255,29.190983 a 14.638386,14.638386 0 0 0 -14.638383,14.638383 14.638386,14.638386 0 0 0 14.638383,14.6389 14.638386,14.638386 0 0 0 14.638383,-14.6389 14.638386,14.638386 0 0 0 -14.638383,-14.638383 z m 0,4.240568 A 10.398036,10.398036 0 0 1 41.90907,43.829366 10.398036,10.398036 0 0 1 31.511255,54.227698 10.398036,10.398036 0 0 1 21.11344,43.829366 10.398036,10.398036 0 0 1 31.511255,33.431551 Z" /><path
         id="path12"
         style="fill:#ffffff;fill-opacity:1;stroke-width:0.264583"
         d="m 31.511255,36.477476 a 7.3525219,7.3525219 0 0 0 -7.352523,7.352006 7.3525219,7.3525219 0 0 0 7.352523,7.352523 7.3525219,7.3525219 0 0 0 7.352523,-7.352523 7.3525219,7.3525219 0 0 0 -7.352523,-7.352006 z m 0,3.210657 a 4.1415529,4.1415529 0 0 1 4.141349,4.141349 4.1415529,4.1415529 0 0 1 -4.141349,4.141866 4.1415529,4.1415529 0 0 1 -4.141349,-4.141866 4.1415529,4.1415529 0 0 1 4.141349,-4.141349 z" /><rect
         style="fill:#ffffff;fill-opacity:1;stroke-width:0.269209"
         id="rect8"
         width="4.7430072"
         height="53.253254"
         x="-4.8752203"
         y="69.007492"
         transform="matrix(1,0,0.25881905,0.96592583,0,0)" /><text
         xml:space="preserve"
         style="font-style:normal;font-variant:normal;font-weight:normal;font-stretch:normal;font-size:25.4px;line-height:1;font-family:'Modern No. 20';-inkscape-font-specification:'Modern No. 20, ';text-align:center;text-anchor:middle;fill:#008000;stroke-width:3;stroke-dashoffset:15.874"
         x="153.7168"
         y="95.242981"
         id="text2"><tspan
           sodipodi:role="line"
           id="tspan2"
           style="stroke-width:3"
           x="153.7168"
           y="95.242981" /></text></g></g></svg>
